<?xml version="1.0" standalone="no"?>
<!DOCTYPE svg PUBLIC "-//W3C//DTD SVG 20010904//EN"
 "http://www.w3.org/TR/2001/REC-SVG-20010904/DTD/svg10.dtd">
<svg version="1.0" xmlns="http://www.w3.org/2000/svg"
 width="512.000000pt" height="512.000000pt" viewBox="0 0 512.000000 512.000000"
 preserveAspectRatio="xMidYMid meet">
<metadata>
Created by potrace 1.11, written by Peter Selinger 2001-2013
</metadata>
<g transform="translate(0.000000,512.000000) scale(0.100000,-0.100000)"
fill="#000000" stroke="none">
<path d="M398 5104 c-137 -33 -265 -131 -331 -254 -72 -132 -67 44 -67 -2285
0 -1815 2 -2108 15 -2163 42 -176 157 -302 347 -379 40 -17 169 -18 2168 -20
1326 -1 2144 1 2175 7 136 26 291 143 354 268 64 128 61 -19 61 2282 0 1835
-2 2103 -15 2159 -46 191 -203 346 -394 387 -98 20 -4227 19 -4313 -2z"/>
</g>
</svg>
